name C:\Users\r0593348\3dpredictsim\Results\batch_windlass\Pog_s1_tmt_bCst_d00_k1500_WL40_ig24_pas.mot
datacolumns 128
datarows 4
range 1.67479377 1.70828965
endheader
time	pelvis_tilt	pelvis_list	pelvis_rotation	pelvis_tx	pelvis_ty	pelvis_tz	hip_flexion_l	hip_adduction_l	hip_rotation_l	hip_flexion_r	hip_adduction_r	hip_rotation_r	knee_angle_l	knee_angle_r	ankle_angle_l	ankle_angle_r	subtalar_angle_l	subtalar_angle_r	tmt_angle_l	tmt_angle_r	mtp_angle_l	mtp_angle_r	lumbar_extension	lumbar_bending	lumbar_rotation	arm_flex_l	arm_add_l	arm_rot_l	arm_flex_r	arm_add_r	arm_rot_r	elbow_flex_l	elbow_flex_r	pro_sup_l	pro_sup_r	glut_med1_l/activation	glut_med2_l/activation	glut_med3_l/activation	glut_min1_l/activation	glut_min2_l/activation	glut_min3_l/activation	semimem_l/activation	semiten_l/activation	bifemlh_l/activation	bifemsh_l/activation	sar_l/activation	add_long_l/activation	add_brev_l/activation	add_mag1_l/activation	add_mag2_l/activation	add_mag3_l/activation	tfl_l/activation	pect_l/activation	grac_l/activation	glut_max1_l/activation	glut_max2_l/activation	glut_max3_l/activation	iliacus_l/activation	psoas_l/activation	quad_fem_l/activation	gem_l/activation	peri_l/activation	rect_fem_l/activation	vas_med_l/activation	vas_int_l/activation	vas_lat_l/activation	med_gas_l/activation	lat_gas_l/activation	soleus_l/activation	tib_post_l/activation	flex_dig_l/activation	flex_hal_l/activation	tib_ant_l/activation	per_brev_l/activation	per_long_l/activation	per_tert_l/activation	ext_dig_l/activation	ext_hal_l/activation	ercspn_l/activation	intobl_l/activation	extobl_l/activation	glut_med1_r/activation	glut_med2_r/activation	glut_med3_r/activation	glut_min1_r/activation	glut_min2_r/activation	glut_min3_r/activation	semimem_r/activation	semiten_r/activation	bifemlh_r/activation	bifemsh_r/activation	sar_r/activation	add_long_r/activation	add_brev_r/activation	add_mag1_r/activation	add_mag2_r/activation	add_mag3_r/activation	tfl_r/activation	pect_r/activation	grac_r/activation	glut_max1_r/activation	glut_max2_r/activation	glut_max3_r/activation	iliacus_r/activation	psoas_r/activation	quad_fem_r/activation	gem_r/activation	peri_r/activation	rect_fem_r/activation	vas_med_r/activation	vas_int_r/activation	vas_lat_r/activation	med_gas_r/activation	lat_gas_r/activation	soleus_r/activation	tib_post_r/activation	flex_dig_r/activation	flex_hal_r/activation	tib_ant_r/activation	per_brev_r/activation	per_long_r/activation	per_tert_r/activation	ext_dig_r/activation	ext_hal_r/activation	ercspn_r/activation	intobl_r/activation	extobl_r/activation	
          1.67479377	         -2.92582825	          2.24372092	         -6.33613995	          2.09349222	          0.85986037	          0.00259994	         31.73508517	          2.77145819	         -2.23020396	        -17.07750649	         -2.27372579	          7.99952685	        -16.29356567	         -9.97120556	          7.77091036	          2.90446325	         -0.66029362	         15.06560264	         -0.41700374	        -12.10648624	          0.88778427	         28.34948887	         -1.26521333	         -0.69108792	          2.35906793	        -14.35559362	        -13.58978364	          5.96589765	          8.40942434	        -13.46406378	         16.99937927	         16.05849783	         42.25396177	         86.51662706	         86.51662706	          0.05263190	          0.05000506	          0.05000022	          0.05000022	          0.05000033	          0.05000206	          0.05018117	          0.05930445	          0.22049083	          0.05000273	          0.05000061	          0.07967919	          0.10853699	          0.14127879	          0.18184698	          0.13950788	          0.05000105	          0.05000202	          0.05930459	          0.05930488	          0.13081534	          0.12142500	          0.05458572	          0.05648642	          0.14807465	          0.05000046	          0.05000180	          0.05413193	          0.10827160	          0.11902474	          0.08916119	          0.05000010	          0.05000023	          0.05930749	          0.05911307	          0.05930582	          0.05930529	          0.51100376	          0.39161889	          0.22358568	          0.07738210	          0.57892618	          0.26147001	          0.05436708	          0.08130880	          0.11604595	          0.26285180	          0.09912750	          0.05000013	          0.29343975	          0.20085388	          0.09895842	          0.05000396	          0.05000045	          0.05000032	          0.06988466	          0.07916839	          0.14188501	          0.05598252	          0.05000450	          0.05000556	          0.05001191	          0.27569378	          0.05004443	          0.05000064	          0.05000292	          0.05000215	          0.05000182	          0.29111516	          0.53675452	          0.05000019	          0.05000088	          0.05000033	          0.27564048	          0.07409016	          0.05000775	          0.12080655	          0.25014108	          0.32237092	          0.19750004	          0.18710069	          0.18122149	          0.24240193	          0.05000002	          0.17093364	          0.21231981	          0.05000017	          0.05000009	          0.05000015	          0.05000000	          0.05000015	          0.05000005	
          1.68595906	         -2.91649840	          2.30746063	         -6.56292766	          2.11093275	          0.85899956	          0.00236213	         30.98336041	          3.13499695	         -2.03069294	        -16.90068654	         -2.52097822	          7.81100224	        -15.66122030	        -11.95834703	          7.34865266	          1.67666406	         -1.07561213	         15.82703357	         -0.52950624	        -12.49443759	          1.11969549	         28.96488395	         -1.01793822	         -0.91808532	          2.45860017	        -15.58801080	        -13.56354550	          5.86627147	          8.12273035	        -13.49005421	         17.17719543	         16.07401012	         43.39142180	         86.51662706	         86.51662706	          0.07710291	          0.05002145	          0.32705136	          0.05930451	          0.05930443	          0.05000185	          0.05000007	          0.05000011	          0.21981389	          0.05000005	          0.05000043	          0.09895558	          0.30897654	          0.31467943	          0.23794321	          0.15713618	          0.05000017	          0.08028798	          0.05000064	          0.05000051	          0.11029161	          0.18287238	          0.05930420	          0.05000273	          0.12484294	          0.19536118	          0.17369062	          0.07034025	          0.23684128	          0.22880898	          0.19798023	          0.05000003	          0.05000005	          0.05000264	          0.05000002	          0.05000128	          0.05000085	          0.69526694	          0.33017784	          0.18850689	          0.47108173	          0.66817128	          0.42831961	          0.05040923	          0.06855207	          0.09783923	          0.22161241	          0.08357518	          0.05000010	          0.24740137	          0.16934151	          0.08343268	          0.05000097	          0.05000013	          0.05000009	          0.05892034	          0.06674768	          0.20043354	          0.26870596	          0.07267304	          0.05000188	          0.05000027	          0.23243985	          0.11514858	          0.05002399	          0.05000116	          0.05000067	          0.05000042	          0.24544152	          0.49826146	          0.05000033	          0.05000091	          0.05000035	          0.23239469	          0.06246741	          0.17723180	          0.10521623	          0.21089586	          0.27179339	          0.16651379	          0.15774606	          0.15278934	          0.20437100	          0.12675350	          0.14411560	          0.17900858	          0.05000028	          0.15107595	          0.05000076	          0.05655096	          0.05000035	          0.05000004	
          1.69712436	         -2.90210260	          2.37045871	         -6.75840018	          2.12858092	          0.85783306	          0.00213511	         30.10179418	          3.47872529	         -1.75818471	        -16.64083770	         -2.74213392	          7.61733380	        -15.63111172	        -14.15245056	          6.77098466	          0.48847245	         -1.48797229	         16.50617015	         -0.69836443	        -12.52102947	          1.41592163	         28.71705694	         -0.75674376	         -1.15117750	          2.54542328	        -16.77415797	        -13.54708170	          5.85553518	          7.75905698	        -13.52344105	         17.27809364	         16.02508440	         44.49413912	         86.51662706	         86.51662706	          0.22409491	          0.05000009	          0.27573973	          0.05000013	          0.05000011	          0.05000015	          0.06287849	          0.05000579	          0.18830980	          0.05000011	          0.05000034	          0.08343028	          0.26050061	          0.34157482	          0.29825467	          0.17953546	          0.05000027	          0.06769313	          0.14024979	          0.18017484	          0.17214976	          0.17005329	          0.05000010	          0.05000011	          0.37860475	          0.16471056	          0.14643997	          0.05930445	          0.24891142	          0.24990903	          0.21186074	          0.05930438	          0.05930440	          0.05930440	          0.05008041	          0.05930530	          0.05930476	          0.58618528	          0.42634189	          0.21183263	          0.47019119	          0.64014750	          0.36111963	          0.05000001	          0.05779678	          0.08248901	          0.18684315	          0.07046293	          0.05930474	          0.20858605	          0.14277318	          0.07034283	          0.05000374	          0.05000104	          0.05930488	          0.05000004	          0.05627559	          0.23185220	          0.35765555	          0.23057128	          0.12334333	          0.12898735	          0.19597212	          0.09708295	          0.05002147	          0.05930363	          0.05930607	          0.07034028	          0.20693365	          0.45866754	          0.07034042	          0.06143319	          0.05016477	          0.19593376	          0.11525223	          0.14942778	          0.08871209	          0.17780791	          0.22915109	          0.14038905	          0.13299696	          0.12881797	          0.17230684	          0.22454786	          0.12150561	          0.16890437	          0.13544953	          0.23392407	          0.12598086	          0.07676749	          0.05930450	          0.05001867	
          1.70828965	         -2.88430281	          2.43924488	         -6.91860454	          2.14623721	          0.85637997	          0.00192193	         29.07668340	          3.78479873	         -1.45195018	        -16.26765468	         -2.93601362	          7.43316013	        -15.88620351	        -16.59499558	          6.43807116	         -0.56896580	         -1.93255788	         17.07459920	         -1.22582164	        -11.98397224	          1.54413002	         27.19006497	         -0.49897133	         -1.39588663	          2.61761313	        -17.86840847	        -13.54738940	          5.97111555	          7.35293684	        -13.55944909	         17.31632401	         15.88119902	         45.54158755	         86.51662706	         86.51662706	          0.35235448	          0.33935885	          0.47858235	          0.29407763	          0.19028669	          0.27394003	          0.09296925	          0.12652451	          0.15876638	          0.05348162	          0.05000073	          0.07034074	          0.21963008	          0.28798447	          0.25146120	          0.18459256	          0.05000018	          0.05707323	          0.11824605	          0.28057892	          0.21866645	          0.16745107	          0.05000013	          0.05000011	          0.31920467	          0.13886887	          0.26670571	          0.05000008	          0.20986061	          0.24034670	          0.18400704	          0.05000003	          0.05000006	          0.05000001	          0.05000000	          0.05000096	          0.05000051	          0.72515481	          0.35945229	          0.17859775	          0.69627192	          0.73636115	          0.50906267	          0.05862146	          0.07580692	          0.06954712	          0.21245811	          0.05940789	          0.05000034	          0.18177504	          0.12037343	          0.05930678	          0.05003603	          0.05000038	          0.05000057	          0.05000231	          0.07034038	          0.19547646	          0.30154220	          0.19439647	          0.10399185	          0.10875029	          0.27922066	          0.08185169	          0.05930387	          0.05000144	          0.05000185	          0.05930454	          0.18269928	          0.44382116	          0.05930458	          0.05179501	          0.05000063	          0.16519328	          0.09717006	          0.12598372	          0.07479386	          0.14991121	          0.19319905	          0.11836308	          0.11668746	          0.10860758	          0.14527349	          0.22716987	          0.13282978	          0.15636695	          0.12218577	          0.26079349	          0.10621558	          0.10025554	          0.05000008	          0.05000004	
